:SAMPLES-PER-SECOND 30
:FULLY-SPECIFIED
:DEGREES
1420
root  64.3157 40.0494 -1.3143 -160.472 -78.6657 161.314
RightUpLeg  -5.62388 -7.49775 -10.4528
RightLeg  14.589 5.53578 1.16179
RightFoot  -8.84431 -0.141808 3.72756
RightToes  0.00048216 0.542163 -0.142577
Spine  13.0422 0.701255 0.00583356
Spine1  4.33686 1.57583 -3.58951
HEad  60.5755 6.20054 -174.463
LeftShoulder1  8.18925 -12.3816 -44.9184
LeftArm  -10.3377 13.0632 -31.4666
LeftForeArm  38.2835 -39.9417 -6.95307
LeftHand  -0.25398 0.0180481 5.50724
RightShoulder  4.70082 8.34273 33.7357
RightArm  4.79109 -12.201 37.7909
RightForeArm  -2.09659 31.1489 6.94577
RightHand  -3.22315 10.1838 -24.1338
LeftUpLeg  -9.63911 -4.01763 -6.32023
LeftLeg  9.11248 -16.8031 -3.26593
LeftFoot  0.253303 -0.214677 2.08235
LeftToes  1.06246e-005 4.65856e-005 -8.18502e-006
1421
root  64.6344 40.0866 -1.78451 -154.185 -81.0052 155.048
RightUpLeg  -5.11071 -10.9269 -10.5253
RightLeg  13.98 6.74061 2.19701
RightFoot  -8.4639 -0.158991 4.04456
RightToes  0.00048216 0.542163 -0.142577
Spine  12.7574 0.63092 1.2452
Spine1  4.25323 1.72204 -4.07194
HEad  59.9299 8.25308 -174.2
LeftShoulder1  8.20679 -12.4125 -44.9277
LeftArm  -10.5283 13.5595 -30.7326
LeftForeArm  35.5877 -35.9918 -6.02614
LeftHand  -0.25398 0.0180481 5.50724
RightShoulder  4.78327 8.54842 33.7413
RightArm  5.4034 -11.706 38.0685
RightForeArm  -2.96082 28.3404 6.28823
RightHand  -3.21523 10.5635 -23.5293
LeftUpLeg  -10.1107 -4.42367 -5.7745
LeftLeg  9.09892 -16.0592 -2.8292
LeftFoot  -0.688255 0.0312775 -0.295373
LeftToes  1.06246e-005 4.65856e-005 -8.18502e-006
1422
root  64.8749 40.1096 -2.23118 -145.432 -83.0493 146.359
RightUpLeg  -4.82938 -12.2497 -10.1963
RightLeg  13.8072 5.60626 2.54567
RightFoot  -8.39602 -0.147773 3.52404
RightToes  0.00048216 0.542163 -0.142577
Spine  12.017 0.593235 2.00684
Spine1  4.35327 1.71826 -3.92906
HEad  58.7902 9.70194 -174.039
LeftShoulder1  8.15908 -12.4061 -44.6741
LeftArm  -9.64646 14.1552 -29.4733
LeftForeArm  32.0822 -31.535 -5.11485
LeftHand  -0.25398 0.0180481 5.50724
RightShoulder  4.91555 8.77786 34.0754
RightArm  4.5714 -11.5246 37.6412
RightForeArm  -3.52303 25.5563 5.65181
RightHand  -3.01722 10.2307 -22.5962
LeftUpLeg  -10.5938 -3.38377 -4.97438
LeftLeg  9.30579 -9.98688 -2.1069
LeftFoot  -2.0192 0.103853 -1.10518
LeftToes  1.06246e-005 4.65856e-005 -8.18502e-006
1423
root  65.1066 40.1177 -2.63072 -134.402 -84.8059 135.427
RightUpLeg  -4.8431 -12.5152 -9.37107
RightLeg  14.032 3.50957 2.40415
RightFoot  -8.44215 -0.118336 2.41146
RightToes  0.00048216 0.542163 -0.142577
Spine  11.0697 0.504971 2.54536
Spine1  4.5905 1.5441 -3.38658
HEad  57.4472 10.2045 -174.335
LeftShoulder1  7.96269 -12.2654 -43.9534
LeftArm  -7.80476 14.6106 -27.7209
LeftForeArm  29.2107 -26.9266 -4.20434
LeftHand  -0.25398 0.0180481 5.50724
RightShoulder  4.94177 8.83692 34.097
RightArm  1.32929 -11.4192 36.8504
RightForeArm  -3.5725 22.7432 5.15839
RightHand  -2.89786 10.0049 -22.0468
LeftUpLeg  -11.1152 -0.0794105 -3.98587
LeftLeg  10.2173 -0.900954 -1.06294
LeftFoot  -3.30876 0.0481027 -0.388349
LeftToes  1.06246e-005 4.65856e-005 -8.18502e-006
1424
root  65.3219 40.1095 -2.96311 -117.045 -86.2644 118.021
RightUpLeg  -4.63624 -12.837 -8.63016
RightLeg  13.9778 1.89016 2.52146
RightFoot  -8.4145 -0.0986461 1.62679
RightToes  0.00048216 0.542163 -0.142577
Spine  10.3003 0.252139 2.7699
Spine1  4.74581 1.08595 -2.49263
HEad  56.3964 10.2883 -174.776
LeftShoulder1  7.52265 -11.8957 -42.4321
LeftArm  -6.27979 15.0347 -25.8055
LeftForeArm  28.4825 -22.6313 -3.52125
LeftHand  -0.25398 0.0180481 5.50724
RightShoulder  4.74977 8.61324 33.2549
RightArm  -4.38136 -11.4754 35.7018
RightForeArm  -2.66633 20.2883 5.19292
RightHand  -2.94975 10.1736 -22.191
LeftUpLeg  -11.5621 4.78137 -3.22536
LeftLeg  12.2004 4.631 0.142546
LeftFoot  -4.39707 0.00887679 0.307504
LeftToes  1.06246e-005 4.65856e-005 -8.18502e-006
1425
root  65.4814 40.1076 -3.23174 -89.1716 -87.0262 89.8174
RightUpLeg  -3.90486 -13.0734 -8.32033
RightLeg  13.4762 0.405411 3.02367
RightFoot  -8.28854 -0.0873034 1.16662
RightToes  0.00048216 0.542163 -0.142577
Spine  9.90841 -0.0434325 2.51945
Spine1  4.61008 0.486194 -1.25239
HEad  55.6558 10.7647 -174.809
LeftShoulder1  6.88228 -11.3442 -40.0908
LeftArm  -7.13624 15.5656 -23.666
LeftForeArm  30.0514 -18.8607 -3.67697
LeftHand  -0.25398 0.0180481 5.50724
RightShoulder  4.32081 8.02292 31.5333
RightArm  -10.0007 -11.8212 33.758
RightForeArm  -1.86545 18.4935 5.24266
RightHand  -3.00434 10.2684 -22.4539
LeftUpLeg  -11.4076 8.68784 -2.67932
LeftLeg  14.3625 4.29456 0.902724
LeftFoot  -5.26995 0.0226351 0.165151
LeftToes  1.06246e-005 4.65856e-005 -8.18502e-006
1426
root  65.6001 40.1255 -3.44515 -63.7379 -86.9353 63.9059
RightUpLeg  -2.97526 -12.8332 -8.21277
RightLeg  12.8843 -1.21957 3.49671
RightFoot  -8.10529 -0.0731058 0.642919
RightToes  0.00048216 0.542163 -0.142577
Spine  9.6979 -0.115174 2.08915
Spine1  4.13675 0.151097 -0.0848872
HEad  54.5751 11.5989 -174.382
LeftShoulder1  6.19518 -10.7787 -37.2496
LeftArm  -9.31792 16.1514 -20.9217
LeftForeArm  30.737 -15.7629 -4.00844
LeftHand  -0.25398 0.0180481 5.50724
RightShoulder  3.71912 7.06388 29.2065
RightArm  -14.5173 -12.3244 30.6801
RightForeArm  -1.21906 16.708 5.12298
RightHand  -2.97361 10.1538 -22.3895
LeftUpLeg  -10.4011 9.84136 -1.90959
LeftLeg  15.7002 2.59959 0.99708
LeftFoot  -5.8198 0.0454095 -0.213548
LeftToes  1.06246e-005 4.65856e-005 -8.18502e-006
1427
root  65.6915 40.1492 -3.59793 -54.3401 -86.7879 54.1673
RightUpLeg  -2.33219 -12.398 -8.03507
RightLeg  12.3811 -2.24494 3.77343
RightFoot  -7.88352 -0.0575646 0.135545
RightToes  0.00048216 0.542163 -0.142577
Spine  9.28738 0.0814443 1.95611
Spine1  3.42767 0.275936 0.390559
HEad  52.738 11.9843 -173.913
LeftShoulder1  5.52524 -10.2695 -34.0613
LeftArm  -11.2639 16.816 -17.46
LeftForeArm  29.2894 -13.5854 -3.96381
LeftHand  -0.25398 0.0180481 5.50724
RightShoulder  3.08688 5.96863 26.5293
RightArm  -18.3565 -12.827 26.691
RightForeArm  -0.783389 14.3375 4.78937
RightHand  -2.93615 10.112 -22.1771
LeftUpLeg  -8.82059 10.0204 -0.919117
LeftLeg  16.0352 2.68588 1.13318
LeftFoot  -6.10612 0.0765914 -0.873382
LeftToes  1.06246e-005 4.65856e-005 -8.18502e-006
1428
root  65.7223 40.1659 -3.68449 -54.5774 -86.9596 54.3209
RightUpLeg  -2.08533 -12.0293 -7.78161
RightLeg  11.9095 -2.49677 3.92452
RightFoot  -7.63752 -0.0447005 -0.219364
RightToes  0.00048216 0.542163 -0.142577
Spine  8.52785 0.319582 2.15023
Spine1  2.66293 0.608966 0.0966421
HEad  50.7074 11.9975 -173.808
LeftShoulder1  4.79872 -9.66504 -30.3753
LeftArm  -12.7381 17.6763 -13.7794
LeftForeArm  27.2013 -12.5977 -3.57556
LeftHand  -0.25398 0.0180481 5.50724
RightShoulder  2.53504 5.01196 23.5822
RightArm  -21.2486 -13.2304 22.4083
RightForeArm  -1.5528 11.7763 4.18305
RightHand  -2.91484 10.0833 -22.0621
LeftUpLeg  -6.87189 11.0196 0.12824
LeftLeg  15.3788 3.6581 1.25274
LeftFoot  -6.38721 0.130865 -2.14537
LeftToes  1.06246e-005 4.65856e-005 -8.18502e-006
1429
root  65.7037 40.1892 -3.71561 -56.943 -87.1855 56.7301
RightUpLeg  -1.99274 -11.6571 -7.49422
RightLeg  11.4344 -2.68343 3.888
RightFoot  -7.35631 -0.0300575 -0.567821
RightToes  0.00048216 0.542163 -0.142577
Spine  7.60604 0.427583 2.27598
Spine1  2.02178 0.801493 -0.343154
HEad  49.449 12.5196 -174.154
LeftShoulder1  4.00025 -8.82763 -26.2721
LeftArm  -13.8905 18.5749 -10.516
LeftForeArm  25.172 -12.7653 -3.10728
LeftHand  -0.25398 0.0180481 5.50724
RightShoulder  2.03089 4.10429 20.2979
RightArm  -22.9943 -13.315 18.3585
RightForeArm  -3.86646 9.80871 3.54445
RightHand  -2.87617 9.8442 -22.1074
LeftUpLeg  -4.63858 11.7188 1.16356
LeftLeg  13.5238 4.32132 0.577462
LeftFoot  -6.71706 0.171184 -3.23075
LeftToes  1.06246e-005 4.65856e-005 -8.18502e-006
1430
root  65.7133 40.2414 -3.70899 -56.707 -87.2692 56.5035
RightUpLeg  -1.75965 -11.1909 -7.24182
RightLeg  10.798 -3.21385 3.6757
RightFoot  -6.93804 -0.01279 -0.890274
RightToes  0.00048216 0.542163 -0.142577
Spine  6.80225 0.462424 1.97033
Spine1  1.56832 0.777778 -0.302879
HEad  48.5978 12.8483 -174.579
LeftShoulder1  3.26967 -7.91798 -22.2847
LeftArm  -15.0106 19.1869 -7.85839
LeftForeArm  22.9237 -13.7478 -2.7589
LeftHand  -0.25398 0.0180481 5.50724
RightShoulder  1.51189 2.93406 16.8196
RightArm  -24.0636 -12.8399 14.6694
RightForeArm  -7.23327 8.8471 3.18559
RightHand  -2.89348 9.65145 -22.5029
LeftUpLeg  -2.48434 10.005 1.96635
LeftLeg  10.5634 5.93066 -0.858857
LeftFoot  -6.65847 0.166326 -3.09823
LeftToes  1.06246e-005 4.65856e-005 -8.18502e-006
